<svg xmlns="http://www.w3.org/2000/svg" xmlns:xlink="http://www.w3.org/1999/xlink" width="21.738" height="32.578" viewBox="0 0 21.738 32.578"><defs><style>.a{fill:#fff;}</style><linearGradient id="a" x1="4.584" y1="-5.376" x2="-1.644" y2="2.327" gradientUnits="objectBoundingBox"><stop offset="0" stop-color="#fff"/><stop offset="1" stop-color="#fff"/></linearGradient></defs><path class="a" d="M85.185,19.089l4.454,13.489h12.829l4.454-13.489H97.008V11.453h4.772a4.778,4.778,0,0,0,4.772-4.772V5.727H99.872a4.726,4.726,0,0,0-2.863.979V4.772A4.778,4.778,0,0,0,92.236,0H85.555V.954a4.778,4.778,0,0,0,4.772,4.772H95.1v6.705a4.726,4.726,0,0,0-2.863-.979H85.555v.954a4.778,4.778,0,0,0,4.772,4.772H95.1v1.909Z" transform="translate(-85.185)"/></svg>