<svg xmlns="http://www.w3.org/2000/svg" width="32.375" height="32.375" viewBox="0 0 32.375 32.375"><defs><style>.a{fill:#fff;}</style></defs><path class="a" d="M138.072,453.845A2.845,2.845,0,0,0,135.227,451H123.845A2.845,2.845,0,0,0,121,453.845v1.012h17.072Z" transform="translate(-113.349 -422.483)"/><path class="a" d="M30.478,7.651v-1.9H18.858a2.842,2.842,0,0,0-1.722-1.722V0h-1.9V4.032a2.842,2.842,0,0,0-1.722,1.722H1.9v1.9H4.268L0,18.084a4.748,4.748,0,0,0,4.742,4.742h1.9a4.748,4.748,0,0,0,4.742-4.742L7.094,7.651h6.423a2.842,2.842,0,0,0,1.722,1.722V22.931a4.751,4.751,0,0,0-3.7,3.69h9.293a4.751,4.751,0,0,0-3.7-3.69V9.373a2.842,2.842,0,0,0,1.722-1.722h6.4L20.993,18.084a4.748,4.748,0,0,0,4.742,4.742h1.9a4.748,4.748,0,0,0,4.742-4.742L28.087,7.651ZM9.01,17.136H2.371L5.691,9.168Zm20.993,0H23.364l3.319-7.968Z" transform="translate(0 0)"/></svg>