<svg xmlns="http://www.w3.org/2000/svg" width="30.51" height="33.117" viewBox="0 0 30.51 33.117"><defs><style>.a{fill:#fff;}</style></defs><path class="a" d="M49.9,246.569l-5.574-8.759a8.618,8.618,0,0,0-9.876-.157l-3.032,2.022a6.75,6.75,0,0,1-6.466.567l-4.026,6.327a4.849,4.849,0,0,0,4.093,7.456H45.8A4.849,4.849,0,0,0,49.9,246.569Zm-20.308,3.575a2.911,2.911,0,1,1,2.911-2.911A2.914,2.914,0,0,1,29.587,250.143Zm5.821-1.94a.97.97,0,1,1,.97-.97A.97.97,0,0,1,35.409,248.2Zm3.881,1.94a.97.97,0,1,1,.97-.97A.97.97,0,0,1,39.29,250.143Zm0-3.881a2.911,2.911,0,1,1,2.911-2.911A2.914,2.914,0,0,1,39.29,246.263Zm3.881,1.94a.97.97,0,1,1,.97-.97A.97.97,0,0,1,43.17,248.2Z" transform="translate(-20.154 -220.907)"/><path class="a" d="M301.969,332a.97.97,0,1,0,.97.97A.971.971,0,0,0,301.969,332Z" transform="translate(-282.834 -310.526)"/><path class="a" d="M110.633,17.671a4.806,4.806,0,0,0,4.331-.519L118,15.131a10.63,10.63,0,0,1,8.975-1.335l-2.085-3.276v-4.7a2.911,2.911,0,0,0,0-5.821h-9.7a2.911,2.911,0,0,0,0,5.821v4.7Z" transform="translate(-104.781 0)"/><path class="a" d="M151.969,392a.97.97,0,1,0,.97.97A.971.971,0,0,0,151.969,392Z" transform="translate(-142.536 -366.645)"/></svg>