<svg xmlns="http://www.w3.org/2000/svg" width="35.54" height="36.144" viewBox="0 0 35.54 36.144"><defs><style>.a{fill:#018184;}</style></defs><path class="a" d="M391.619,13.058,388.33.784a1.059,1.059,0,0,0-1.3-.749l-3.409.914a1.059,1.059,0,0,0-.749,1.3l3.289,12.274a1.059,1.059,0,0,0,1.3.749l3.409-.914a1.059,1.059,0,0,0,.749-1.3Z" transform="translate(-356.116 0.001)"/><path class="a" d="M5.061,180.333a1.059,1.059,0,0,0-.749,1.3l.822,3.068a1.059,1.059,0,0,0,1.3.749l1.258-.337L6.319,180Z" transform="translate(-4.276 -167.29)"/><path class="a" d="M64.73,143.454l-.787.211a1.765,1.765,0,0,0-1.248,2.161l1.188,4.432a1.765,1.765,0,0,0,2.161,1.248l.788-.211Z" transform="translate(-58.514 -133.327)"/><circle class="a" cx="2.647" cy="2.647" r="2.647" transform="translate(15.123 14.789)"/><path class="a" d="M123.544,48.37a2.386,2.386,0,0,0-1.687,2.923l1.871,6.982a2.386,2.386,0,0,0,2.923,1.687,4.765,4.765,0,1,1,9.2-2.466l5.537-1.484L138.285,44.42Z" transform="translate(-113.48 -41.284)"/><path class="a" d="M127.563,299.8,121.1,313.26a1.059,1.059,0,1,0,1.909.916l6.458-13.453v-.008A4.748,4.748,0,0,1,127.563,299.8Z" transform="translate(-112.757 -278.633)"/><path class="a" d="M272.9,299.8a4.749,4.749,0,0,1-1.9.918v.008l6.458,13.453a1.059,1.059,0,1,0,1.909-.916Z" transform="translate(-252.171 -278.633)"/><path class="a" d="M242.059,312.929A4.761,4.761,0,0,1,241,312.81l0,.007v13a1.059,1.059,0,1,0,2.118,0v-13l0-.007A4.764,4.764,0,0,1,242.059,312.929Z" transform="translate(-224.289 -290.728)"/></svg>