<svg xmlns="http://www.w3.org/2000/svg" xmlns:xlink="http://www.w3.org/1999/xlink" width="25.374" height="43.657" viewBox="0 0 25.374 43.657"><defs><style>.a{fill:#fff;}</style><linearGradient id="a" x1="4.584" y1="-5.376" x2="-1.644" y2="2.327" gradientUnits="objectBoundingBox"><stop offset="0" stop-color="#fff"/><stop offset="1" stop-color="#fff"/></linearGradient></defs><path class="a" d="M277.462,154.433a6.66,6.66,0,0,0,10,0,6.66,6.66,0,0,0-10,0Z" transform="translate(-262.945 -139.194)"/><path class="a" d="M225.577,251.895l2.594,1.62,2.594-1.62-2.594-9.12Z" transform="translate(-215.484 -222.074)"/><path class="a" d="M133.471,6.451A14.709,14.709,0,0,1,140.3,4.664a13.958,13.958,0,0,1,4.59.809,8.212,8.212,0,0,0-1.665-2.487C141.236.977,138.044,0,133.471,0s-7.765.977-9.757,2.986a8.212,8.212,0,0,0-1.665,2.487,13.956,13.956,0,0,1,4.591-.809A14.709,14.709,0,0,1,133.471,6.451Z" transform="translate(-120.784)"/><path class="a" d="M119.942,90.914a10.8,10.8,0,0,1,6.831-3.02,10.017,10.017,0,0,1,5.852,2.213,28.753,28.753,0,0,0-.349-3.987,12.1,12.1,0,0,0-5.5-1.422,12.381,12.381,0,0,0-6.186,1.8l-.645.377L119.3,86.5a12.381,12.381,0,0,0-6.186-1.8,12.1,12.1,0,0,0-5.5,1.422,28.77,28.77,0,0,0-.349,3.987,10.017,10.017,0,0,1,5.852-2.213A10.8,10.8,0,0,1,119.942,90.914Z" transform="translate(-107.255 -77.478)"/><path class="a" d="M117.234,154.433a8.184,8.184,0,0,0,5,2.259,8.234,8.234,0,0,0,5-2.264,8.184,8.184,0,0,0-5-2.259A8.234,8.234,0,0,0,117.234,154.433Z" transform="translate(-116.379 -139.194)"/><path class="a" d="M116.687,214.016l1.154-4.057a9.266,9.266,0,0,1-4.776,1.481,10.021,10.021,0,0,1-5.856-2.217c0,.087,0,.174,0,.26a27.43,27.43,0,0,0,.28,3.692,12.135,12.135,0,0,0,5.576,1.46A11.281,11.281,0,0,0,116.687,214.016Z" transform="translate(-107.209 -191.383)"/><path class="a" d="M284.875,211.44a9.267,9.267,0,0,1-4.776-1.481l1.154,4.057a11.286,11.286,0,0,0,3.622.619,12.135,12.135,0,0,0,5.576-1.46,27.43,27.43,0,0,0,.28-3.692c0-.086,0-.173,0-.26A10.02,10.02,0,0,1,284.875,211.44Z" transform="translate(-265.357 -191.383)"/><path class="a" d="M132.734,291.971l1.554,5.463-5.581,3.484-5.581-3.484,1.554-5.463a13.4,13.4,0,0,1-2.8.3,14.109,14.109,0,0,1-5.035-.971,49.423,49.423,0,0,0,3.065,9.489q.706,1.583,1.461,2.921h14.679q.753-1.336,1.461-2.921a49.417,49.417,0,0,0,3.065-9.489,14.11,14.11,0,0,1-5.035.971,13.391,13.391,0,0,1-2.8-.3Z" transform="translate(-116.02 -266.463)"/><path class="a" d="M194.953,470.7c1.863,0,3.829-1.357,5.691-3.85H189.262C191.124,469.339,193.09,470.7,194.953,470.7Z" transform="translate(-182.265 -427.039)"/></svg>